<svg width="220" height="220" viewBox="0 0 220 220" xmlns="http://www.w3.org/2000/svg">
  <rect width="220" height="220" rx="24" fill="#06101d"/>
  <circle cx="110" cy="110" r="96" fill="#082647" opacity="0.65"/>
  <g fill="none" stroke="#2bc7ff" stroke-width="6" stroke-linecap="round" stroke-linejoin="round">
    <path d="M110 82 L110 42"/>
    <path d="M110 42 L94 61"/>
    <path d="M110 42 L126 61"/>
    <path d="M110 142 L110 182"/>
    <path d="M110 182 L94 163"/>
    <path d="M110 182 L126 163"/>
    <path d="M66 101 C78 90 90 90 102 101 C114 112 126 112 138 101 C150 90 162 90 174 101"/>
    <path d="M66 121 C78 110 90 110 102 121 C114 132 126 132 138 121 C150 110 162 110 174 121"/>
    <path d="M66 141 C78 130 90 130 102 141 C114 152 126 152 138 141 C150 130 162 130 174 141"/>
    <path d="M110 93 L110 98"/>
    <path d="M110 105 L110 110"/>
    <path d="M110 117 L110 122"/>
    <path d="M110 129 L110 134"/>
  </g>
</svg>
