<svg width="220" height="220" viewBox="0 0 220 220" xmlns="http://www.w3.org/2000/svg">
  <rect width="220" height="220" rx="24" fill="#06101d"/>
  <circle cx="110" cy="110" r="96" fill="#082647" opacity="0.65"/>
  <g fill="none" stroke="#2bc7ff" stroke-width="6" stroke-linecap="round" stroke-linejoin="round">
    <path d="M54 162 C66 151 78 151 90 162 C102 173 114 173 126 162 C138 151 150 151 162 162"/>
    <path d="M54 181 C66 170 78 170 90 181 C102 192 114 192 126 181 C138 170 150 170 162 181"/>
    <g transform="translate(111 96) rotate(-14)">
      <path d="M-32 -4 L-23 -27 L-10 -39 L11 -39 L24 -27 L34 -4"/>
      <path d="M-42 -3 L-30 25 C-14 38 14 38 30 25 L42 -3 L18 6 L0 13 L-18 6 Z"/>
      <path d="M-24 -15 L24 -15"/>
      <path d="M0 -39 L0 20"/>
    </g>
    <path d="M132 54 A34 34 0 0 1 177 53"/>
    <path d="M139 42 L119 48 L132 64 Z" fill="#2bc7ff"/>
  </g>
</svg>
