<svg
  width="96"
  height="96"
  viewBox="0 0 96 96"
  fill="none"
  xmlns="http://www.w3.org/2000/svg"
>
  <defs>
    <filter id="glow" x="-50%" y="-50%" width="200%" height="200%">
      <feGaussianBlur stdDeviation="2.5" result="blur" />
      <feFlood flood-color="#28C6FF" flood-opacity="0.85" />
      <feComposite in2="blur" operator="in" />
      <feMerge>
        <feMergeNode />
        <feMergeNode in="SourceGraphic" />
      </feMerge>
    </filter>
  </defs>

  <g
    filter="url(#glow)"
    stroke="#28C6FF"
    stroke-width="4"
    stroke-linecap="round"
    stroke-linejoin="round"
    fill="none"
  >
    <path d="M27 43 L33 24 Q35 18 42 17 H54 Q61 18 63 24 L69 43" />
    <path d="M33 37 H63 L66 47 H30 L33 37" />
    <path d="M48 18 V69" />
    <path d="M21 43 L30 74 Q38 83 48 86 Q58 83 66 74 L75 43 L56 52 L48 56 L40 52 L21 43Z" />
    <path d="M30 74 L48 56 L66 74" />
  </g>
</svg>
